<mxfile host="Electron" agent="Mozilla/5.0 (Windows NT 10.0; Win64; x64) AppleWebKit/537.36 (KHTML, like Gecko) draw.io/25.0.2 Chrome/128.0.6613.186 Electron/32.2.5 Safari/537.36" version="25.0.2">
  <diagram name="Seite-1" id="xRaBUaQqFaY1rbFo64zf">
    <mxGraphModel dx="1295" dy="758" grid="1" gridSize="10" guides="1" tooltips="1" connect="1" arrows="1" fold="1" page="1" pageScale="1" pageWidth="827" pageHeight="1169" math="0" shadow="0">
      <root>
        <mxCell id="0" />
        <mxCell id="1" parent="0" />
        <mxCell id="VmAqC0swEdf2sAjkA_wx-1" value="Zutaten&amp;nbsp;&lt;div&gt;erstellung&lt;/div&gt;&lt;div&gt;APP&lt;/div&gt;" style="whiteSpace=wrap;html=1;aspect=fixed;" vertex="1" parent="1">
          <mxGeometry x="10" y="10" width="80" height="80" as="geometry" />
        </mxCell>
        <mxCell id="VmAqC0swEdf2sAjkA_wx-3" value="" style="dashed=0;outlineConnect=0;html=1;align=center;labelPosition=center;verticalLabelPosition=bottom;verticalAlign=top;shape=mxgraph.weblogos.json" vertex="1" parent="1">
          <mxGeometry x="530" y="14.200000000000003" width="70" height="75.8" as="geometry" />
        </mxCell>
        <mxCell id="VmAqC0swEdf2sAjkA_wx-4" value="" style="endArrow=classic;html=1;rounded=0;exitX=1;exitY=0.5;exitDx=0;exitDy=0;" edge="1" parent="1" source="VmAqC0swEdf2sAjkA_wx-8" target="VmAqC0swEdf2sAjkA_wx-3">
          <mxGeometry relative="1" as="geometry">
            <mxPoint x="230" y="82" as="sourcePoint" />
            <mxPoint x="300" y="80" as="targetPoint" />
          </mxGeometry>
        </mxCell>
        <mxCell id="VmAqC0swEdf2sAjkA_wx-5" value="save" style="edgeLabel;resizable=0;html=1;;align=center;verticalAlign=middle;" connectable="0" vertex="1" parent="VmAqC0swEdf2sAjkA_wx-4">
          <mxGeometry relative="1" as="geometry" />
        </mxCell>
        <mxCell id="VmAqC0swEdf2sAjkA_wx-6" value="&lt;h1 style=&quot;margin-top: 0px;&quot;&gt;Zutaten&amp;nbsp;&lt;/h1&gt;&lt;h1 style=&quot;margin-top: 0px;&quot;&gt;&lt;font style=&quot;font-size: 10px;&quot;&gt;werden gespeichert in das JSON&lt;/font&gt;&amp;nbsp;&amp;nbsp;&lt;/h1&gt;&lt;div&gt;&lt;div style=&quot;color: rgb(59, 59, 59); background-color: rgb(255, 255, 255); font-family: Consolas, &amp;quot;Courier New&amp;quot;, monospace; line-height: 24px; white-space: pre;&quot;&gt;&lt;div style=&quot;font-size: 18px;&quot;&gt;{&lt;/div&gt;&lt;div style=&quot;&quot;&gt;&lt;font style=&quot;font-size: 6px;&quot;&gt;&amp;nbsp; &amp;nbsp; &lt;span style=&quot;color: rgb(4, 81, 165);&quot;&gt;&quot;id&quot;&lt;/span&gt;: &lt;span style=&quot;color: rgb(9, 134, 88);&quot;&gt;31&lt;/span&gt;,&lt;/font&gt;&lt;/div&gt;&lt;div style=&quot;&quot;&gt;&lt;font style=&quot;font-size: 6px;&quot;&gt;&amp;nbsp; &amp;nbsp; &lt;span style=&quot;color: #0451a5;&quot;&gt;&quot;name&quot;&lt;/span&gt;: &lt;span style=&quot;color: #a31515;&quot;&gt;&quot;Nudeln&quot;&lt;/span&gt;,&lt;/font&gt;&lt;/div&gt;&lt;div style=&quot;&quot;&gt;&lt;font style=&quot;font-size: 6px;&quot;&gt;&amp;nbsp; &amp;nbsp; &lt;span style=&quot;color: #0451a5;&quot;&gt;&quot;preisProBasiseinheit&quot;&lt;/span&gt;: &lt;span style=&quot;color: #098658;&quot;&gt;88&lt;/span&gt;,&lt;/font&gt;&lt;/div&gt;&lt;div style=&quot;&quot;&gt;&lt;font style=&quot;font-size: 6px;&quot;&gt;&amp;nbsp; &amp;nbsp; &lt;span style=&quot;color: #0451a5;&quot;&gt;&quot;basiseinheit&quot;&lt;/span&gt;: &lt;span style=&quot;color: #a31515;&quot;&gt;&quot;kg&quot;&lt;/span&gt;,&lt;/font&gt;&lt;/div&gt;&lt;div style=&quot;&quot;&gt;&lt;font style=&quot;font-size: 6px;&quot;&gt;&amp;nbsp; &amp;nbsp; &lt;span style=&quot;color: #0451a5;&quot;&gt;&quot;verwendungseinheit&quot;&lt;/span&gt;: &lt;span style=&quot;color: #a31515;&quot;&gt;&quot;g&quot;&lt;/span&gt;,&lt;/font&gt;&lt;/div&gt;&lt;div style=&quot;&quot;&gt;&lt;font style=&quot;font-size: 6px;&quot;&gt;&amp;nbsp; &amp;nbsp; &lt;span style=&quot;color: #0451a5;&quot;&gt;&quot;lieferanten&quot;&lt;/span&gt;: [&lt;/font&gt;&lt;/div&gt;&lt;div style=&quot;&quot;&gt;&lt;font style=&quot;font-size: 6px;&quot;&gt;&amp;nbsp; &amp;nbsp; &amp;nbsp; &lt;span style=&quot;color: #a31515;&quot;&gt;&quot;Transgourmet&quot;&lt;/span&gt;&lt;/font&gt;&lt;/div&gt;&lt;div style=&quot;&quot;&gt;&lt;font style=&quot;font-size: 6px;&quot;&gt;&amp;nbsp; &amp;nbsp; ],&lt;/font&gt;&lt;/div&gt;&lt;div style=&quot;&quot;&gt;&lt;font style=&quot;font-size: 6px;&quot;&gt;&amp;nbsp; &amp;nbsp; &lt;span style=&quot;color: #0451a5;&quot;&gt;&quot;kategorien&quot;&lt;/span&gt;: [&lt;/font&gt;&lt;/div&gt;&lt;div style=&quot;&quot;&gt;&lt;font style=&quot;font-size: 6px;&quot;&gt;&amp;nbsp; &amp;nbsp; &amp;nbsp; &lt;span style=&quot;color: #a31515;&quot;&gt;&quot;Obst&quot;&lt;/span&gt;&lt;/font&gt;&lt;/div&gt;&lt;div style=&quot;&quot;&gt;&lt;font style=&quot;font-size: 6px;&quot;&gt;&amp;nbsp; &amp;nbsp; ],&lt;/font&gt;&lt;/div&gt;&lt;div style=&quot;&quot;&gt;&lt;font style=&quot;font-size: 6px;&quot;&gt;&amp;nbsp; &amp;nbsp; &lt;span style=&quot;color: #0451a5;&quot;&gt;&quot;allergene&quot;&lt;/span&gt;: [&lt;/font&gt;&lt;/div&gt;&lt;div style=&quot;&quot;&gt;&lt;font style=&quot;font-size: 6px;&quot;&gt;&amp;nbsp; &amp;nbsp; &amp;nbsp; &lt;span style=&quot;color: #a31515;&quot;&gt;&quot;Gluten&quot;&lt;/span&gt;,&lt;/font&gt;&lt;/div&gt;&lt;div style=&quot;&quot;&gt;&lt;font style=&quot;font-size: 6px;&quot;&gt;&amp;nbsp; &amp;nbsp; &amp;nbsp; &lt;span style=&quot;color: #a31515;&quot;&gt;&quot;Eier&quot;&lt;/span&gt;&lt;/font&gt;&lt;/div&gt;&lt;div style=&quot;&quot;&gt;&lt;font style=&quot;font-size: 6px;&quot;&gt;&amp;nbsp; &amp;nbsp; ],&lt;/font&gt;&lt;/div&gt;&lt;div style=&quot;&quot;&gt;&lt;font style=&quot;font-size: 6px;&quot;&gt;&amp;nbsp; &amp;nbsp; &lt;span style=&quot;color: #0451a5;&quot;&gt;&quot;allergenCodes&quot;&lt;/span&gt;: [&lt;/font&gt;&lt;/div&gt;&lt;div style=&quot;&quot;&gt;&lt;font style=&quot;font-size: 6px;&quot;&gt;&amp;nbsp; &amp;nbsp; &amp;nbsp; &lt;span style=&quot;color: #a31515;&quot;&gt;&quot;A&quot;&lt;/span&gt;,&lt;/font&gt;&lt;/div&gt;&lt;div style=&quot;&quot;&gt;&lt;font style=&quot;font-size: 6px;&quot;&gt;&amp;nbsp; &amp;nbsp; &amp;nbsp; &lt;span style=&quot;color: #a31515;&quot;&gt;&quot;C&quot;&lt;/span&gt;&lt;/font&gt;&lt;/div&gt;&lt;div style=&quot;&quot;&gt;&lt;font style=&quot;font-size: 6px;&quot;&gt;&amp;nbsp; &amp;nbsp; ],&lt;/font&gt;&lt;/div&gt;&lt;div style=&quot;&quot;&gt;&lt;font style=&quot;font-size: 6px;&quot;&gt;&amp;nbsp; &amp;nbsp; &lt;span style=&quot;color: #0451a5;&quot;&gt;&quot;preisProVerwendungseinheit&quot;&lt;/span&gt;: &lt;span style=&quot;color: #098658;&quot;&gt;0.088&lt;/span&gt;&lt;/font&gt;&lt;/div&gt;&lt;div style=&quot;&quot;&gt;&lt;font style=&quot;font-size: 6px;&quot;&gt;&amp;nbsp; }&lt;/font&gt;&lt;/div&gt;&lt;/div&gt;&lt;/div&gt;" style="text;html=1;whiteSpace=wrap;overflow=hidden;rounded=0;" vertex="1" parent="1">
          <mxGeometry x="660" y="20" width="180" height="640" as="geometry" />
        </mxCell>
        <mxCell id="VmAqC0swEdf2sAjkA_wx-8" value="API&lt;div&gt;&lt;br&gt;&lt;/div&gt;&lt;div&gt;SAVE&amp;nbsp;&lt;/div&gt;&lt;div&gt;&amp;nbsp;&lt;/div&gt;" style="shape=ext;double=1;rounded=1;whiteSpace=wrap;html=1;rotation=0;" vertex="1" parent="1">
          <mxGeometry x="160" width="120" height="107.9" as="geometry" />
        </mxCell>
        <mxCell id="VmAqC0swEdf2sAjkA_wx-9" value="" style="dashed=0;outlineConnect=0;html=1;align=center;labelPosition=center;verticalLabelPosition=bottom;verticalAlign=top;shape=mxgraph.weblogos.json" vertex="1" parent="1">
          <mxGeometry x="185" y="220" width="70" height="75.8" as="geometry" />
        </mxCell>
        <mxCell id="VmAqC0swEdf2sAjkA_wx-10" value="" style="endArrow=classic;html=1;rounded=0;" edge="1" parent="1" target="VmAqC0swEdf2sAjkA_wx-9">
          <mxGeometry relative="1" as="geometry">
            <mxPoint x="220" y="110" as="sourcePoint" />
            <mxPoint x="540" y="62" as="targetPoint" />
            <Array as="points" />
          </mxGeometry>
        </mxCell>
        <mxCell id="VmAqC0swEdf2sAjkA_wx-11" value="lastIngreadiendID" style="edgeLabel;resizable=0;html=1;;align=center;verticalAlign=middle;" connectable="0" vertex="1" parent="VmAqC0swEdf2sAjkA_wx-10">
          <mxGeometry relative="1" as="geometry" />
        </mxCell>
        <mxCell id="VmAqC0swEdf2sAjkA_wx-13" value="&lt;div style=&quot;color: #3b3b3b;background-color: #ffffff;font-family: Consolas, &#39;Courier New&#39;, monospace;font-weight: normal;font-size: 18px;line-height: 24px;white-space: pre;&quot;&gt;&lt;div&gt;&lt;span style=&quot;color: #3b3b3b;&quot;&gt;{&lt;/span&gt;&lt;/div&gt;&lt;div&gt;&lt;span style=&quot;color: #3b3b3b;&quot;&gt;&amp;nbsp; &lt;/span&gt;&lt;span style=&quot;color: #0451a5;&quot;&gt;&quot;lastId&quot;&lt;/span&gt;&lt;span style=&quot;color: #3b3b3b;&quot;&gt;: &lt;/span&gt;&lt;span style=&quot;color: #098658;&quot;&gt;38&lt;/span&gt;&lt;/div&gt;&lt;div&gt;&lt;span style=&quot;color: #3b3b3b;&quot;&gt;}&lt;/span&gt;&lt;/div&gt;&lt;/div&gt;" style="text;whiteSpace=wrap;html=1;" vertex="1" parent="1">
          <mxGeometry x="360" y="207.9" width="170" height="100" as="geometry" />
        </mxCell>
        <mxCell id="VmAqC0swEdf2sAjkA_wx-14" value="" style="endArrow=classic;html=1;rounded=0;" edge="1" parent="1" source="VmAqC0swEdf2sAjkA_wx-3" target="VmAqC0swEdf2sAjkA_wx-6">
          <mxGeometry relative="1" as="geometry">
            <mxPoint x="360" y="132" as="sourcePoint" />
            <mxPoint x="610" y="130" as="targetPoint" />
          </mxGeometry>
        </mxCell>
        <mxCell id="VmAqC0swEdf2sAjkA_wx-15" value="Inhalt" style="edgeLabel;resizable=0;html=1;;align=center;verticalAlign=middle;" connectable="0" vertex="1" parent="VmAqC0swEdf2sAjkA_wx-14">
          <mxGeometry relative="1" as="geometry" />
        </mxCell>
        <mxCell id="VmAqC0swEdf2sAjkA_wx-16" value="" style="endArrow=classic;html=1;rounded=0;entryX=0;entryY=0.5;entryDx=0;entryDy=0;" edge="1" parent="1" source="VmAqC0swEdf2sAjkA_wx-9" target="VmAqC0swEdf2sAjkA_wx-13">
          <mxGeometry relative="1" as="geometry">
            <mxPoint x="230" y="118" as="sourcePoint" />
            <mxPoint x="230" y="230" as="targetPoint" />
          </mxGeometry>
        </mxCell>
        <mxCell id="VmAqC0swEdf2sAjkA_wx-17" value="ID Count +1&amp;nbsp;" style="edgeLabel;resizable=0;html=1;;align=center;verticalAlign=middle;" connectable="0" vertex="1" parent="VmAqC0swEdf2sAjkA_wx-16">
          <mxGeometry relative="1" as="geometry" />
        </mxCell>
        <mxCell id="VmAqC0swEdf2sAjkA_wx-18" value="Für jede Zutat welche gespeichert wird, wird der Count um 1 erhöht um keien doppelten ID zu erzeugen" style="text;html=1;align=center;verticalAlign=middle;whiteSpace=wrap;rounded=0;" vertex="1" parent="1">
          <mxGeometry x="270" y="280" width="225" height="60" as="geometry" />
        </mxCell>
        <mxCell id="VmAqC0swEdf2sAjkA_wx-20" value="" style="endArrow=classic;html=1;rounded=0;exitX=1;exitY=0.5;exitDx=0;exitDy=0;entryX=0;entryY=0.5;entryDx=0;entryDy=0;" edge="1" parent="1" target="VmAqC0swEdf2sAjkA_wx-8">
          <mxGeometry relative="1" as="geometry">
            <mxPoint x="90" y="53.1" as="sourcePoint" />
            <mxPoint x="340" y="51.1" as="targetPoint" />
          </mxGeometry>
        </mxCell>
        <mxCell id="VmAqC0swEdf2sAjkA_wx-21" value="Infos" style="edgeLabel;resizable=0;html=1;;align=center;verticalAlign=middle;" connectable="0" vertex="1" parent="VmAqC0swEdf2sAjkA_wx-20">
          <mxGeometry relative="1" as="geometry" />
        </mxCell>
      </root>
    </mxGraphModel>
  </diagram>
</mxfile>
